<svg width="80" height="80" viewBox="0 0 80 80" fill="none" xmlns="http://www.w3.org/2000/svg">
<path d="M34.2225 39.554C30.1115 30.8411 24.3733 31.8661 22.018 33.4678C24.5875 34.1084 25.5508 38.9133 25.2297 51.0857C24.9727 60.8236 27.4779 65.3936 28.7625 66.4613C38.5261 77.993 59.1666 72.334 68.2664 68.063C65.59 72.4407 56.1904 80.94 40.0035 79.915C19.7699 78.6337 14.3099 67.7426 14.3099 63.2581C14.3099 58.7735 12.7041 59.4142 12.0618 60.0548C11.548 60.5673 11.4194 64.9665 11.4194 67.102C3.39016 63.2581 8.52887 53.328 9.49237 49.1637C10.2632 45.8323 8.74298 46.7079 7.88653 47.5621L3.06905 54.9296C-1.2988 46.473 5.31721 40.5149 9.1712 38.593C11.8476 36.5643 16.1727 32.699 12.0618 33.4678C7.95088 34.2366 2.42673 38.4862 0.178525 40.5149C-1.36309 31.5458 7.45836 28.663 12.0618 28.3427C17.3076 28.0223 26.4502 26.805 21.0545 24.4987C15.6589 22.1923 6.81603 24.819 3.06905 26.4206C4.09679 15.9139 17.2005 17.9854 23.6239 20.3344C26.6215 21.509 32.2312 23.0893 30.6896 20.0141C29.148 16.9389 16.9864 14.2482 11.0983 13.2873C17.0078 3.54926 29.6191 12.433 35.186 18.0921C37.6483 20.548 42.059 24.1144 40.0035 18.7328C37.948 13.3512 28.0132 7.3078 23.3027 4.95879C36.1495 -3.69 45.4634 17.1312 46.1057 20.9751C46.6196 24.0502 48.0328 23.5377 48.6751 22.897C49.9598 16.4905 41.7164 5.06565 37.4342 0.154036C51.3087 -1.89605 53.7068 17.0245 53.1715 26.7411C54.4562 29.0474 55.6338 26.8478 56.062 25.4598C57.3467 18.2845 54.6703 7.30798 53.1715 2.71664C63.4489 3.35729 62.4854 20.3346 59.2737 28.3427C56.7043 34.7492 58.2031 35.0695 59.2737 34.4289C65.6971 28.2786 66.6606 15.85 66.3394 10.4045C72.7628 14.5046 71.7993 21.082 70.5146 23.8581C64.6051 37.9525 54.5632 46.8148 50.281 49.4842C47.8187 50.2316 42.3159 51.1499 40.0035 48.8435C37.6911 46.5372 35.186 41.6895 34.2225 39.554Z" fill="#F1DEBD"/>
<path d="M76.9379 25.4598C76.1671 31.3539 67.624 40.9421 63.4488 44.9995C62.4211 47.3058 63.8771 47.6689 64.7335 47.5621L74.6898 39.554C80.5993 35.1975 78.6508 28.3427 76.9379 25.4598Z" fill="#F1DEBD"/>
<path d="M79.8285 41.4759C79.0577 45.0636 69.444 51.5128 64.7335 54.2889C62.678 56.339 64.5194 56.8516 65.697 56.8516L76.2956 51.0857C80.1496 49.0356 80.2567 43.825 79.8285 41.4759Z" fill="#F1DEBD"/>
<path d="M76.2956 54.2889C76.2956 56.8516 67.7311 61.3361 63.4488 63.2581C57.2824 65.0519 58.9525 65.7139 60.5583 65.8207C73.919 64.7956 76.6168 57.7057 76.2956 54.2889Z" fill="#F1DEBD"/>
</svg>
